#!OML:ASF E:\Mandelcareful walks\Project 1\Capture day 1\Session 1\Subject1.ASF
:FULLY-SPECIFIED
:DEGREES
583
root 29.4312 15.0056 -0.970164 227.845 -85.0753 143.424
lowerback 26.4443 -0.60295 8.49196
upperback 7.43111 0.774244 0.215152
thorax -6.17356 0.075651 -4.84824
lowerneck -16.8486 3.853 -0.907677
upperneck 41.795 8.11119 -9.2857
head 19.4873 1.22707 -2.88344
rclavicle 2.22639e-014 7.15625e-015
rhumerus 7.5958 -11.5654 -20.9581
rradius 121.54
rwrist -3.31643
rhand -41.5697 -1.04132
rfingers 7.12502
rthumb -14.4806 -30.516
lclavicle 2.22639e-014 7.15625e-015
lhumerus 9.19929 6.26757 27.6097
lradius 121.424
lwrist 8.74784
lhand -48.1797 -66.9956
lfingers 7.12502
lthumb -20.8411 -38.095
rfemur -34.5786 -14.6728 14.4839
rtibia 64.0597
rfoot -33.0127 -10.2192
rtoes -10.6427
lfemur -34.3708 13.24 -14.0193
ltibia 93.8436
lfoot -10.6235 4.6813
ltoes -12.752
584
root 29.0118 15.0379 -0.978575 226.128 -85.9047 145.187
lowerback 26.4042 -0.0919603 9.6569
upperback 7.89418 1.64438 0.129422
thorax -5.44227 0.529257 -5.86378
lowerneck -16.3812 2.70133 -1.50446
upperneck 43.5022 5.86587 -7.91648
head 20.148 0.397157 -2.67623
rclavicle -3.18055e-015 1.27222e-014
rhumerus 10.8384 -18.4356 -17.1808
rradius 124.376
rwrist -1.83629
rhand -41.6879 -1.4748
rfingers 7.12502
rthumb -14.5945 -30.9413
lclavicle -3.18055e-015 1.27222e-014
lhumerus 13.7467 12.6354 25.0121
lradius 124.864
lwrist 3.11036
lhand -50.3947 -65.2546
lfingers 7.12502
lthumb -22.9678 -36.6028
rfemur -31.5376 -15.756 14.7177
rtibia 62.1548
rfoot -33.9294 -9.836
rtoes -10.5629
lfemur -39.7884 14.3939 -14.2942
ltibia 93.9679
lfoot -13.2212 6.69616
ltoes -10.7607
585
root 28.5652 15.1056 -0.997245 229.049 -86.0236 141.875
lowerback 26.8534 0.627659 9.66329
upperback 8.42403 2.5065 -0.0983046
thorax -4.90244 0.976177 -6.37351
lowerneck -15.7256 1.66858 -2.10903
upperneck 44.8385 3.6462 -6.34804
head 20.6074 -0.363393 -2.30615
rclavicle 1.66979e-014 -3.49861e-014
rhumerus 13.533 -24.1712 -13.9458
rradius 126.797
rwrist -1.14715
rhand -42.5353 -1.03479
rfingers 7.12502
rthumb -15.4108 -30.4404
lclavicle 1.66979e-014 -3.49861e-014
lhumerus 18.2413 17.5672 23.3027
lradius 128.303
lwrist 0.762933
lhand -51.2448 -69.866
lfingers 7.12502
lthumb -23.7834 -41.318
rfemur -27.8215 -16.4937 14.0139
rtibia 59.7687
rfoot -34.1479 -9.75086
rtoes -11.3221
lfemur -44.0054 15.4507 -15.5044
ltibia 92.2962
lfoot -15.6164 8.40914
ltoes -10.6017
586
root 28.0755 15.1893 -1.00219 228.78 -86.9567 142.259
lowerback 26.7801 0.972309 9.79559
upperback 8.59352 2.96749 0.189
thorax -4.60311 1.21366 -6.25012
lowerneck -14.7364 1.02848 -3.28365
upperneck 45.982 2.10946 -4.72388
head 20.9719 -0.959213 -1.62613
rclavicle -5.08889e-014 3.18055e-015
rhumerus 18.6565 -25.9925 -12.9435
rradius 127.649
rwrist 0.159653
rhand -42.8962 -0.732988
rfingers 7.12502
rthumb -15.7584 -30.1115
lclavicle -5.08889e-014 3.18055e-015
lhumerus 21.6601 21.3778 22.1136
lradius 131.454
lwrist -1.36247
lhand -50.46 -70.5981
lfingers 7.12502
lthumb -23.0305 -41.9542
rfemur -24.1204 -17.537 14.1552
rtibia 56.9218
rfoot -33.7348 -9.88021
rtoes -12.1218
lfemur -48.1465 16.0342 -16.1284
ltibia 89.3594
lfoot -17.4256 9.07487
ltoes -11.2894
587
root 27.5554 15.3229 -1.02705 236.193 -87.3247 134.895
lowerback 26.6514 1.74204 9.108
upperback 8.6887 3.75031 0.0123187
thorax -4.34663 1.61162 -6.26112
lowerneck -13.4239 0.254899 -3.04811
upperneck 46.9707 -0.0707076 -3.43856
head 21.2107 -1.58363 -1.47667
rclavicle -4.77083e-015 -2.8625e-014
rhumerus 17.2408 -29.0804 -9.66549
rradius 131.049
rwrist -0.153099
rhand -44.5029 -0.131993
rfingers 7.12502
rthumb -17.3053 -29.3815
lclavicle -4.77083e-015 -2.8625e-014
lhumerus 26.0628 22.9281 21.1771
lradius 134.526
lwrist -2.05818
lhand -50.2293 -70.2356
lfingers 7.12502
lthumb -22.8092 -41.5642
rfemur -20.1365 -17.8597 13.691
rtibia 53.7776
rfoot -32.7419 -9.95759
rtoes -11.4137
lfemur -51.1432 16.6746 -17.4467
ltibia 84.8233
lfoot -18.344 8.64138
ltoes -12.3353
588
root 26.9825 15.4887 -1.03658 245.607 -88.3844 125.58
lowerback 25.9708 2.10875 8.8568
upperback 8.77135 4.11092 0.14614
thorax -3.90087 1.81598 -6.02319
lowerneck -11.6449 -0.257408 -2.84494
upperneck 47.5461 -1.65013 -2.58825
head 21.0586 -2.05111 -1.37644
rclavicle 5.80451e-014 -3.02153e-014
rhumerus 18.6818 -29.6637 -8.6308
rradius 132.865
rwrist 0.316268
rhand -44.2493 0.710044
rfingers 7.12502
rthumb -17.0612 -28.5608
lclavicle 5.80451e-014 -3.02153e-014
lhumerus 29.032 22.882 19.7631
lradius 136.357
lwrist -4.12274
lhand -49.4637 -72.9556
lfingers 7.12502
lthumb -22.0742 -44.1956
rfemur -16.2551 -18.5326 13.8528
rtibia 50.742
rfoot -30.2928 -10.2562
rtoes -12.9406
lfemur -53.1609 17.0375 -18.1922
ltibia 79.2239
lfoot -18.433 7.72102
ltoes -11.6174
